<mxfile host="app.diagrams.net" modified="2022-01-19T00:45:37.256Z" agent="5.0 (Macintosh; Intel Mac OS X 10_15_7) AppleWebKit/537.36 (KHTML, like Gecko) Chrome/97.0.4692.71 Safari/537.36" etag="00xX4eJEa4sHi2No7ett" version="15.8.7" type="github">
  <diagram id="tJuNuwM7w041aLE-RxrF" name="Page-1">
    <mxGraphModel dx="1177" dy="727" grid="1" gridSize="10" guides="1" tooltips="1" connect="1" arrows="1" fold="1" page="1" pageScale="1" pageWidth="850" pageHeight="1100" math="0" shadow="0">
      <root>
        <mxCell id="0" />
        <mxCell id="1" parent="0" />
        <mxCell id="s7t7nHPVm9k2qo2n3bWj-88" value="" style="rounded=0;whiteSpace=wrap;html=1;dashed=1;fontFamily=Courier New;fontColor=#666666;strokeWidth=2;fillColor=none;strokeColor=#50857B;" vertex="1" parent="1">
          <mxGeometry x="465" y="30" width="155" height="194.38" as="geometry" />
        </mxCell>
        <mxCell id="s7t7nHPVm9k2qo2n3bWj-1" value="" style="ellipse;whiteSpace=wrap;html=1;aspect=fixed;fillColor=#f5f5f5;fontColor=#333333;strokeColor=#666666;" vertex="1" parent="1">
          <mxGeometry x="40" y="160" width="40" height="40" as="geometry" />
        </mxCell>
        <mxCell id="s7t7nHPVm9k2qo2n3bWj-2" value="" style="ellipse;whiteSpace=wrap;html=1;aspect=fixed;fillColor=#f5f5f5;fontColor=#333333;strokeColor=#666666;" vertex="1" parent="1">
          <mxGeometry x="40" y="220" width="40" height="40" as="geometry" />
        </mxCell>
        <mxCell id="s7t7nHPVm9k2qo2n3bWj-3" value="" style="ellipse;whiteSpace=wrap;html=1;aspect=fixed;fillColor=#f5f5f5;fontColor=#333333;strokeColor=#666666;" vertex="1" parent="1">
          <mxGeometry x="40" y="280" width="40" height="40" as="geometry" />
        </mxCell>
        <mxCell id="s7t7nHPVm9k2qo2n3bWj-4" value="" style="ellipse;whiteSpace=wrap;html=1;aspect=fixed;fillColor=#f5f5f5;fontColor=#333333;strokeColor=#666666;" vertex="1" parent="1">
          <mxGeometry x="40" y="340" width="40" height="40" as="geometry" />
        </mxCell>
        <mxCell id="s7t7nHPVm9k2qo2n3bWj-5" value="" style="ellipse;whiteSpace=wrap;html=1;aspect=fixed;fillColor=#f5f5f5;fontColor=#333333;strokeColor=#666666;" vertex="1" parent="1">
          <mxGeometry x="40" y="400" width="40" height="40" as="geometry" />
        </mxCell>
        <mxCell id="s7t7nHPVm9k2qo2n3bWj-7" value="" style="endArrow=none;html=1;rounded=0;" edge="1" parent="1">
          <mxGeometry width="50" height="50" relative="1" as="geometry">
            <mxPoint x="90" y="420" as="sourcePoint" />
            <mxPoint x="160" y="300" as="targetPoint" />
          </mxGeometry>
        </mxCell>
        <mxCell id="s7t7nHPVm9k2qo2n3bWj-8" value="" style="endArrow=none;html=1;rounded=0;" edge="1" parent="1">
          <mxGeometry width="50" height="50" relative="1" as="geometry">
            <mxPoint x="90" y="180" as="sourcePoint" />
            <mxPoint x="160" y="300" as="targetPoint" />
          </mxGeometry>
        </mxCell>
        <mxCell id="s7t7nHPVm9k2qo2n3bWj-9" value="" style="endArrow=none;html=1;rounded=0;" edge="1" parent="1">
          <mxGeometry width="50" height="50" relative="1" as="geometry">
            <mxPoint x="90" y="240" as="sourcePoint" />
            <mxPoint x="160" y="300" as="targetPoint" />
          </mxGeometry>
        </mxCell>
        <mxCell id="s7t7nHPVm9k2qo2n3bWj-10" value="" style="endArrow=none;html=1;rounded=0;" edge="1" parent="1">
          <mxGeometry width="50" height="50" relative="1" as="geometry">
            <mxPoint x="90" y="300" as="sourcePoint" />
            <mxPoint x="160" y="300" as="targetPoint" />
          </mxGeometry>
        </mxCell>
        <mxCell id="s7t7nHPVm9k2qo2n3bWj-11" value="" style="endArrow=none;html=1;rounded=0;" edge="1" parent="1">
          <mxGeometry width="50" height="50" relative="1" as="geometry">
            <mxPoint x="90" y="360" as="sourcePoint" />
            <mxPoint x="160" y="299.5" as="targetPoint" />
          </mxGeometry>
        </mxCell>
        <mxCell id="s7t7nHPVm9k2qo2n3bWj-12" value="" style="endArrow=classic;html=1;rounded=0;" edge="1" parent="1">
          <mxGeometry width="50" height="50" relative="1" as="geometry">
            <mxPoint x="160" y="300" as="sourcePoint" />
            <mxPoint x="190" y="300" as="targetPoint" />
          </mxGeometry>
        </mxCell>
        <mxCell id="s7t7nHPVm9k2qo2n3bWj-13" value="&lt;i&gt;Raw labeled geometries&lt;/i&gt;" style="text;html=1;strokeColor=none;fillColor=none;align=center;verticalAlign=middle;whiteSpace=wrap;rounded=0;fontColor=#666666;" vertex="1" parent="1">
          <mxGeometry x="25" y="115" width="70" height="30" as="geometry" />
        </mxCell>
        <mxCell id="s7t7nHPVm9k2qo2n3bWj-14" value="CA" style="text;html=1;strokeColor=none;fillColor=none;align=center;verticalAlign=middle;whiteSpace=wrap;rounded=0;" vertex="1" parent="1">
          <mxGeometry x="30" y="165" width="60" height="30" as="geometry" />
        </mxCell>
        <mxCell id="s7t7nHPVm9k2qo2n3bWj-15" value="VA" style="text;html=1;strokeColor=none;fillColor=none;align=center;verticalAlign=middle;whiteSpace=wrap;rounded=0;" vertex="1" parent="1">
          <mxGeometry x="30" y="222.5" width="60" height="35" as="geometry" />
        </mxCell>
        <mxCell id="s7t7nHPVm9k2qo2n3bWj-16" value="&lt;b&gt;&lt;font face=&quot;Courier New&quot;&gt;Downloaders&lt;/font&gt;&lt;/b&gt;" style="text;html=1;strokeColor=none;fillColor=default;align=center;verticalAlign=middle;whiteSpace=wrap;rounded=0;fontColor=#0000CC;" vertex="1" parent="1">
          <mxGeometry x="120" y="340" width="60" height="30" as="geometry" />
        </mxCell>
        <mxCell id="s7t7nHPVm9k2qo2n3bWj-17" value="" style="shape=cylinder3;whiteSpace=wrap;html=1;boundedLbl=1;backgroundOutline=1;size=15;fillColor=#fff2cc;strokeColor=#d6b656;" vertex="1" parent="1">
          <mxGeometry x="200" y="240" width="80" height="105" as="geometry" />
        </mxCell>
        <mxCell id="s7t7nHPVm9k2qo2n3bWj-18" value="&lt;i&gt;Raw local&lt;br&gt;filesystem&lt;/i&gt;" style="text;html=1;strokeColor=none;fillColor=none;align=center;verticalAlign=middle;whiteSpace=wrap;rounded=0;" vertex="1" parent="1">
          <mxGeometry x="205" y="285" width="70" height="30" as="geometry" />
        </mxCell>
        <mxCell id="s7t7nHPVm9k2qo2n3bWj-29" value="" style="shape=document;whiteSpace=wrap;html=1;boundedLbl=1;fillColor=#dae8fc;strokeColor=#6c8ebf;" vertex="1" parent="1">
          <mxGeometry x="140" y="400" width="60" height="40" as="geometry" />
        </mxCell>
        <mxCell id="s7t7nHPVm9k2qo2n3bWj-30" value="" style="shape=document;whiteSpace=wrap;html=1;boundedLbl=1;fillColor=#dae8fc;strokeColor=#6c8ebf;" vertex="1" parent="1">
          <mxGeometry x="210" y="400" width="60" height="40" as="geometry" />
        </mxCell>
        <mxCell id="s7t7nHPVm9k2qo2n3bWj-31" value="" style="shape=document;whiteSpace=wrap;html=1;boundedLbl=1;fillColor=#dae8fc;strokeColor=#6c8ebf;" vertex="1" parent="1">
          <mxGeometry x="280" y="400" width="60" height="40" as="geometry" />
        </mxCell>
        <mxCell id="s7t7nHPVm9k2qo2n3bWj-33" value="" style="endArrow=classic;html=1;rounded=0;" edge="1" parent="1">
          <mxGeometry width="50" height="50" relative="1" as="geometry">
            <mxPoint x="170" y="390" as="sourcePoint" />
            <mxPoint x="210" y="350" as="targetPoint" />
          </mxGeometry>
        </mxCell>
        <mxCell id="s7t7nHPVm9k2qo2n3bWj-34" value="" style="endArrow=classic;html=1;rounded=0;" edge="1" parent="1">
          <mxGeometry width="50" height="50" relative="1" as="geometry">
            <mxPoint x="310" y="390" as="sourcePoint" />
            <mxPoint x="270" y="350" as="targetPoint" />
          </mxGeometry>
        </mxCell>
        <mxCell id="s7t7nHPVm9k2qo2n3bWj-35" value="" style="endArrow=classic;html=1;rounded=0;" edge="1" parent="1">
          <mxGeometry width="50" height="50" relative="1" as="geometry">
            <mxPoint x="240" y="390" as="sourcePoint" />
            <mxPoint x="240" y="350" as="targetPoint" />
          </mxGeometry>
        </mxCell>
        <mxCell id="s7t7nHPVm9k2qo2n3bWj-36" value="&lt;i&gt;Ancillary data (e.g., Census, TIGRIS, and anything that aids feature engineering and model building)&lt;/i&gt;" style="text;html=1;strokeColor=none;fillColor=none;align=center;verticalAlign=middle;whiteSpace=wrap;rounded=0;fontColor=#666666;" vertex="1" parent="1">
          <mxGeometry x="140" y="450" width="200" height="30" as="geometry" />
        </mxCell>
        <mxCell id="s7t7nHPVm9k2qo2n3bWj-37" value="&lt;i&gt;FPS&lt;/i&gt;" style="text;html=1;strokeColor=none;fillColor=none;align=center;verticalAlign=middle;whiteSpace=wrap;rounded=0;" vertex="1" parent="1">
          <mxGeometry x="145" y="400" width="50" height="40" as="geometry" />
        </mxCell>
        <mxCell id="s7t7nHPVm9k2qo2n3bWj-38" value="&lt;i&gt;SDWIS&lt;/i&gt;" style="text;html=1;strokeColor=none;fillColor=none;align=center;verticalAlign=middle;whiteSpace=wrap;rounded=0;" vertex="1" parent="1">
          <mxGeometry x="215" y="400" width="50" height="30" as="geometry" />
        </mxCell>
        <mxCell id="s7t7nHPVm9k2qo2n3bWj-39" value="&lt;i&gt;etc...&lt;/i&gt;" style="text;html=1;strokeColor=none;fillColor=none;align=center;verticalAlign=middle;whiteSpace=wrap;rounded=0;" vertex="1" parent="1">
          <mxGeometry x="285" y="400" width="50" height="30" as="geometry" />
        </mxCell>
        <mxCell id="s7t7nHPVm9k2qo2n3bWj-42" value="" style="endArrow=classic;html=1;rounded=0;" edge="1" parent="1">
          <mxGeometry width="50" height="50" relative="1" as="geometry">
            <mxPoint x="291" y="280" as="sourcePoint" />
            <mxPoint x="391" y="280" as="targetPoint" />
          </mxGeometry>
        </mxCell>
        <mxCell id="s7t7nHPVm9k2qo2n3bWj-43" value="" style="endArrow=classic;html=1;rounded=0;" edge="1" parent="1">
          <mxGeometry width="50" height="50" relative="1" as="geometry">
            <mxPoint x="291" y="299.5" as="sourcePoint" />
            <mxPoint x="391" y="299.5" as="targetPoint" />
          </mxGeometry>
        </mxCell>
        <mxCell id="s7t7nHPVm9k2qo2n3bWj-44" value="" style="endArrow=classic;html=1;rounded=0;" edge="1" parent="1">
          <mxGeometry width="50" height="50" relative="1" as="geometry">
            <mxPoint x="290" y="320" as="sourcePoint" />
            <mxPoint x="390" y="320" as="targetPoint" />
          </mxGeometry>
        </mxCell>
        <mxCell id="s7t7nHPVm9k2qo2n3bWj-45" value="&lt;b&gt;&lt;font face=&quot;Courier New&quot;&gt;Transformers&lt;/font&gt;&lt;/b&gt;" style="text;html=1;strokeColor=none;fillColor=none;align=center;verticalAlign=middle;whiteSpace=wrap;rounded=0;fontColor=#0000CC;" vertex="1" parent="1">
          <mxGeometry x="311" y="250" width="60" height="30" as="geometry" />
        </mxCell>
        <mxCell id="s7t7nHPVm9k2qo2n3bWj-46" value="" style="shape=cylinder3;whiteSpace=wrap;html=1;boundedLbl=1;backgroundOutline=1;size=15;fillColor=#d5e8d4;strokeColor=#82b366;" vertex="1" parent="1">
          <mxGeometry x="400" y="240" width="80" height="105" as="geometry" />
        </mxCell>
        <mxCell id="s7t7nHPVm9k2qo2n3bWj-47" value="&lt;i&gt;Standardized&lt;br&gt;local staging filesystem&lt;/i&gt;" style="text;html=1;strokeColor=none;fillColor=none;align=center;verticalAlign=middle;whiteSpace=wrap;rounded=0;" vertex="1" parent="1">
          <mxGeometry x="405" y="285" width="70" height="30" as="geometry" />
        </mxCell>
        <mxCell id="s7t7nHPVm9k2qo2n3bWj-48" value="" style="endArrow=classic;html=1;rounded=0;" edge="1" parent="1">
          <mxGeometry width="50" height="50" relative="1" as="geometry">
            <mxPoint x="450" y="230" as="sourcePoint" />
            <mxPoint x="480" y="160" as="targetPoint" />
            <Array as="points">
              <mxPoint x="450" y="160" />
            </Array>
          </mxGeometry>
        </mxCell>
        <mxCell id="s7t7nHPVm9k2qo2n3bWj-50" value="" style="shape=process;whiteSpace=wrap;html=1;backgroundOutline=1;fontFamily=Courier New;fillColor=#ffe6cc;strokeColor=#d79b00;" vertex="1" parent="1">
          <mxGeometry x="490" y="130" width="110" height="80" as="geometry" />
        </mxCell>
        <mxCell id="s7t7nHPVm9k2qo2n3bWj-51" value="&lt;i&gt;Ad hoc analysis and sanity checks&lt;/i&gt;" style="text;html=1;strokeColor=none;fillColor=none;align=center;verticalAlign=middle;whiteSpace=wrap;rounded=0;" vertex="1" parent="1">
          <mxGeometry x="505" y="155" width="80" height="30" as="geometry" />
        </mxCell>
        <mxCell id="s7t7nHPVm9k2qo2n3bWj-53" value="" style="endArrow=classic;html=1;rounded=0;" edge="1" parent="1">
          <mxGeometry width="50" height="50" relative="1" as="geometry">
            <mxPoint x="430" y="230" as="sourcePoint" />
            <mxPoint x="480" y="70" as="targetPoint" />
            <Array as="points">
              <mxPoint x="430" y="70" />
            </Array>
          </mxGeometry>
        </mxCell>
        <mxCell id="s7t7nHPVm9k2qo2n3bWj-55" value="" style="shape=process;whiteSpace=wrap;html=1;backgroundOutline=1;fontFamily=Courier New;fillColor=#f8cecc;strokeColor=#b85450;" vertex="1" parent="1">
          <mxGeometry x="490" y="40" width="110" height="80" as="geometry" />
        </mxCell>
        <mxCell id="s7t7nHPVm9k2qo2n3bWj-56" value="&lt;i&gt;EDA informs feature engineering &amp;amp; model building&lt;/i&gt;" style="text;html=1;strokeColor=none;fillColor=none;align=center;verticalAlign=middle;whiteSpace=wrap;rounded=0;" vertex="1" parent="1">
          <mxGeometry x="501.25" y="67.5" width="87.5" height="25" as="geometry" />
        </mxCell>
        <mxCell id="s7t7nHPVm9k2qo2n3bWj-57" value="" style="endArrow=classic;html=1;rounded=0;" edge="1" parent="1">
          <mxGeometry width="50" height="50" relative="1" as="geometry">
            <mxPoint x="490" y="299.5" as="sourcePoint" />
            <mxPoint x="680" y="300" as="targetPoint" />
          </mxGeometry>
        </mxCell>
        <mxCell id="s7t7nHPVm9k2qo2n3bWj-58" value="&lt;b&gt;&lt;font face=&quot;Courier New&quot;&gt;Predictor&lt;/font&gt;&lt;/b&gt;" style="text;html=1;strokeColor=none;fillColor=none;align=center;verticalAlign=middle;whiteSpace=wrap;rounded=0;fontColor=#0000CC;" vertex="1" parent="1">
          <mxGeometry x="540" y="270" width="60" height="30" as="geometry" />
        </mxCell>
        <mxCell id="s7t7nHPVm9k2qo2n3bWj-59" value="" style="shape=cylinder3;whiteSpace=wrap;html=1;boundedLbl=1;backgroundOutline=1;size=15;fillColor=#e1d5e7;strokeColor=#9673a6;" vertex="1" parent="1">
          <mxGeometry x="690" y="240" width="80" height="105" as="geometry" />
        </mxCell>
        <mxCell id="s7t7nHPVm9k2qo2n3bWj-60" value="&lt;i&gt;Cloud proxy water system boundaries&lt;/i&gt;" style="text;html=1;strokeColor=none;fillColor=none;align=center;verticalAlign=middle;whiteSpace=wrap;rounded=0;" vertex="1" parent="1">
          <mxGeometry x="695" y="290" width="70" height="30" as="geometry" />
        </mxCell>
        <mxCell id="s7t7nHPVm9k2qo2n3bWj-61" value="" style="endArrow=classic;html=1;rounded=0;" edge="1" parent="1">
          <mxGeometry width="50" height="50" relative="1" as="geometry">
            <mxPoint x="610" y="70" as="sourcePoint" />
            <mxPoint x="650" y="290" as="targetPoint" />
            <Array as="points">
              <mxPoint x="650" y="70" />
            </Array>
          </mxGeometry>
        </mxCell>
        <mxCell id="s7t7nHPVm9k2qo2n3bWj-63" value="" style="endArrow=classic;html=1;rounded=0;" edge="1" parent="1">
          <mxGeometry width="50" height="50" relative="1" as="geometry">
            <mxPoint x="610" y="160" as="sourcePoint" />
            <mxPoint x="630" y="290" as="targetPoint" />
            <Array as="points">
              <mxPoint x="630" y="160" />
            </Array>
          </mxGeometry>
        </mxCell>
        <mxCell id="s7t7nHPVm9k2qo2n3bWj-64" value="" style="endArrow=classic;html=1;rounded=0;" edge="1" parent="1">
          <mxGeometry width="50" height="50" relative="1" as="geometry">
            <mxPoint x="729.5" y="355" as="sourcePoint" />
            <mxPoint x="729.5" y="385" as="targetPoint" />
          </mxGeometry>
        </mxCell>
        <mxCell id="s7t7nHPVm9k2qo2n3bWj-72" value="" style="shape=document;whiteSpace=wrap;html=1;boundedLbl=1;fillColor=#dae8fc;strokeColor=#6c8ebf;" vertex="1" parent="1">
          <mxGeometry x="630" y="400" width="60" height="40" as="geometry" />
        </mxCell>
        <mxCell id="s7t7nHPVm9k2qo2n3bWj-73" value="" style="shape=document;whiteSpace=wrap;html=1;boundedLbl=1;fillColor=#dae8fc;strokeColor=#6c8ebf;" vertex="1" parent="1">
          <mxGeometry x="700" y="400" width="60" height="40" as="geometry" />
        </mxCell>
        <mxCell id="s7t7nHPVm9k2qo2n3bWj-74" value="" style="shape=document;whiteSpace=wrap;html=1;boundedLbl=1;fillColor=#dae8fc;strokeColor=#6c8ebf;" vertex="1" parent="1">
          <mxGeometry x="770" y="400" width="60" height="40" as="geometry" />
        </mxCell>
        <mxCell id="s7t7nHPVm9k2qo2n3bWj-75" value="&lt;i&gt;Proxy water service boundary model with compiled data for existing (labeled) systems, and modeled proxy polygons for unlabeled systems&lt;/i&gt;" style="text;html=1;strokeColor=none;fillColor=none;align=center;verticalAlign=middle;whiteSpace=wrap;rounded=0;fontColor=#666666;" vertex="1" parent="1">
          <mxGeometry x="615" y="460" width="230" height="30" as="geometry" />
        </mxCell>
        <mxCell id="s7t7nHPVm9k2qo2n3bWj-76" value="&lt;i&gt;shp&lt;/i&gt;" style="text;html=1;strokeColor=none;fillColor=none;align=center;verticalAlign=middle;whiteSpace=wrap;rounded=0;" vertex="1" parent="1">
          <mxGeometry x="635" y="395" width="50" height="40" as="geometry" />
        </mxCell>
        <mxCell id="s7t7nHPVm9k2qo2n3bWj-77" value="&lt;i&gt;geojson&lt;/i&gt;" style="text;html=1;strokeColor=none;fillColor=none;align=center;verticalAlign=middle;whiteSpace=wrap;rounded=0;" vertex="1" parent="1">
          <mxGeometry x="705" y="400" width="50" height="30" as="geometry" />
        </mxCell>
        <mxCell id="s7t7nHPVm9k2qo2n3bWj-78" value="&lt;i&gt;csv&lt;/i&gt;" style="text;html=1;strokeColor=none;fillColor=none;align=center;verticalAlign=middle;whiteSpace=wrap;rounded=0;" vertex="1" parent="1">
          <mxGeometry x="775" y="400" width="50" height="30" as="geometry" />
        </mxCell>
        <mxCell id="s7t7nHPVm9k2qo2n3bWj-81" value="..." style="text;html=1;strokeColor=none;fillColor=none;align=center;verticalAlign=middle;whiteSpace=wrap;rounded=0;" vertex="1" parent="1">
          <mxGeometry x="30" y="282.5" width="60" height="35" as="geometry" />
        </mxCell>
        <mxCell id="s7t7nHPVm9k2qo2n3bWj-82" value="..." style="text;html=1;strokeColor=none;fillColor=none;align=center;verticalAlign=middle;whiteSpace=wrap;rounded=0;" vertex="1" parent="1">
          <mxGeometry x="30" y="342.5" width="60" height="35" as="geometry" />
        </mxCell>
        <mxCell id="s7t7nHPVm9k2qo2n3bWj-83" value="..." style="text;html=1;strokeColor=none;fillColor=none;align=center;verticalAlign=middle;whiteSpace=wrap;rounded=0;" vertex="1" parent="1">
          <mxGeometry x="30" y="402.5" width="60" height="35" as="geometry" />
        </mxCell>
        <mxCell id="s7t7nHPVm9k2qo2n3bWj-85" value="&lt;b&gt;&lt;font face=&quot;Courier New&quot;&gt;Sandbox&lt;/font&gt;&lt;/b&gt;" style="text;html=1;strokeColor=none;fillColor=none;align=center;verticalAlign=middle;whiteSpace=wrap;rounded=0;fontColor=#50857B;" vertex="1" parent="1">
          <mxGeometry x="515" width="60" height="30" as="geometry" />
        </mxCell>
      </root>
    </mxGraphModel>
  </diagram>
</mxfile>
